<svg width="200" height="32" viewBox="0 0 200 32" fill="none" xmlns="http://www.w3.org/2000/svg">
<path d="M0.268 25V1.816H9.664C13.096 1.816 15.64 2.728 17.296 4.552C18.952 6.352 19.78 9.352 19.78 13.552C19.78 17.512 18.964 20.416 17.332 22.264C15.7 24.088 13.144 25 9.664 25H0.268ZM4.192 21.976H9.052C10.564 21.976 11.824 21.76 12.832 21.328C13.84 20.872 14.596 20.032 15.1 18.808C15.604 17.584 15.856 15.832 15.856 13.552C15.856 11.272 15.628 9.508 15.172 8.26C14.716 7.012 13.984 6.136 12.976 5.632C11.992 5.128 10.684 4.876 9.052 4.876H4.192V21.976ZM32.2869 25.36C29.3109 25.36 27.0069 24.628 25.3749 23.164C23.7429 21.7 22.9269 19.456 22.9269 16.432C22.9269 13.696 23.6229 11.536 25.0149 9.952C26.4069 8.368 28.5189 7.576 31.3509 7.576C33.9429 7.576 35.8869 8.26 37.1829 9.628C38.5029 10.972 39.1629 12.712 39.1629 14.848V18.016H26.6709C26.8629 19.672 27.4629 20.812 28.4709 21.436C29.4789 22.06 31.0149 22.372 33.0789 22.372C33.9429 22.372 34.8309 22.288 35.7429 22.12C36.6549 21.952 37.4469 21.736 38.1189 21.472V24.352C37.3509 24.688 36.4629 24.94 35.4549 25.108C34.4709 25.276 33.4149 25.36 32.2869 25.36ZM26.6709 15.46H35.7069V14.272C35.7069 13.096 35.3829 12.184 34.7349 11.536C34.0869 10.864 32.9949 10.528 31.4589 10.528C29.6349 10.528 28.3749 10.924 27.6789 11.716C27.0069 12.508 26.6709 13.756 26.6709 15.46ZM48.3108 25.36C47.2308 25.36 46.2228 25.168 45.2868 24.784C44.3748 24.4 43.6428 23.824 43.0908 23.056C42.5388 22.264 42.2628 21.292 42.2628 20.14C42.2628 18.508 42.8148 17.2 43.9188 16.216C45.0468 15.208 46.7748 14.704 49.1028 14.704H54.5748V13.948C54.5748 13.132 54.4428 12.484 54.1788 12.004C53.9388 11.524 53.4828 11.176 52.8108 10.96C52.1628 10.744 51.2028 10.636 49.9308 10.636C47.9148 10.636 46.0308 10.936 44.2788 11.536V8.62C45.0468 8.308 45.9828 8.056 47.0868 7.864C48.1908 7.672 49.3788 7.576 50.6508 7.576C53.1468 7.576 55.0428 8.08 56.3388 9.088C57.6588 10.096 58.3188 11.74 58.3188 14.02V25H54.9708L54.7188 23.272C54.0228 23.944 53.1588 24.46 52.1268 24.82C51.1188 25.18 49.8468 25.36 48.3108 25.36ZM49.3548 22.552C50.5308 22.552 51.5508 22.36 52.4148 21.976C53.3028 21.568 54.0228 21.028 54.5748 20.356V17.368H49.1748C48.0228 17.368 47.1828 17.596 46.6548 18.052C46.1508 18.484 45.8988 19.156 45.8988 20.068C45.8988 20.956 46.1988 21.592 46.7988 21.976C47.3988 22.36 48.2508 22.552 49.3548 22.552ZM62.6703 25V7.936H66.2703L66.4863 9.916C67.3023 9.388 68.2743 8.908 69.4023 8.476C70.5303 8.044 71.6463 7.744 72.7503 7.576V10.564C72.0783 10.684 71.3463 10.864 70.5543 11.104C69.7863 11.32 69.0543 11.572 68.3583 11.86C67.6623 12.124 67.0743 12.4 66.5943 12.688V25H62.6703ZM83.1847 25V22.912L95.6407 5.02H83.7967V1.816H100.681V4.228L88.3327 21.976H100.861V25H83.1847ZM105.349 4.372V1.132H109.633V4.372H105.349ZM105.673 25V10.924H103.081L103.441 7.936H109.597V25H105.673ZM114.174 25V7.936H117.774L117.954 9.736C118.722 9.136 119.634 8.632 120.69 8.224C121.77 7.792 122.958 7.576 124.254 7.576C126.462 7.576 128.07 8.092 129.078 9.124C130.086 10.156 130.59 11.764 130.59 13.948V25H126.702V14.128C126.702 12.808 126.426 11.884 125.874 11.356C125.346 10.828 124.338 10.564 122.85 10.564C121.962 10.564 121.086 10.744 120.222 11.104C119.382 11.464 118.674 11.932 118.098 12.508V25H114.174ZM141.691 25.36C140.155 25.36 138.799 25.096 137.623 24.568C136.447 24.04 135.535 23.164 134.887 21.94C134.239 20.716 133.915 19.072 133.915 17.008C133.915 14.968 134.263 13.252 134.959 11.86C135.655 10.444 136.615 9.376 137.839 8.656C139.087 7.936 140.491 7.576 142.051 7.576C143.083 7.576 143.995 7.696 144.787 7.936C145.603 8.176 146.383 8.548 147.127 9.052V0.735999H151.051V25H147.703L147.451 23.308C146.683 24.004 145.843 24.52 144.931 24.856C144.019 25.192 142.939 25.36 141.691 25.36ZM142.735 22.408C144.487 22.408 145.951 21.808 147.127 20.608V12.076C145.999 11.068 144.583 10.564 142.879 10.564C141.223 10.564 139.975 11.116 139.135 12.22C138.295 13.324 137.875 14.932 137.875 17.044C137.875 19.084 138.259 20.488 139.027 21.256C139.819 22.024 141.055 22.408 142.735 22.408ZM160.741 25.36C159.661 25.36 158.653 25.168 157.717 24.784C156.805 24.4 156.073 23.824 155.521 23.056C154.969 22.264 154.693 21.292 154.693 20.14C154.693 18.508 155.245 17.2 156.349 16.216C157.477 15.208 159.205 14.704 161.533 14.704H167.005V13.948C167.005 13.132 166.873 12.484 166.609 12.004C166.369 11.524 165.913 11.176 165.241 10.96C164.593 10.744 163.633 10.636 162.361 10.636C160.345 10.636 158.461 10.936 156.709 11.536V8.62C157.477 8.308 158.413 8.056 159.517 7.864C160.621 7.672 161.809 7.576 163.081 7.576C165.577 7.576 167.473 8.08 168.769 9.088C170.089 10.096 170.749 11.74 170.749 14.02V25H167.401L167.149 23.272C166.453 23.944 165.589 24.46 164.557 24.82C163.549 25.18 162.277 25.36 160.741 25.36ZM161.785 22.552C162.961 22.552 163.981 22.36 164.845 21.976C165.733 21.568 166.453 21.028 167.005 20.356V17.368H161.605C160.453 17.368 159.613 17.596 159.085 18.052C158.581 18.484 158.329 19.156 158.329 20.068C158.329 20.956 158.629 21.592 159.229 21.976C159.829 22.36 160.681 22.552 161.785 22.552ZM182.012 31.336C180.74 31.336 179.468 31.252 178.196 31.084C176.924 30.94 175.844 30.712 174.956 30.4V27.376C175.916 27.688 177.02 27.928 178.268 28.096C179.516 28.264 180.704 28.348 181.832 28.348C183.56 28.348 184.82 28.252 185.612 28.06C186.404 27.868 186.8 27.436 186.8 26.764C186.8 26.26 186.608 25.9 186.224 25.684C185.84 25.492 185.108 25.396 184.028 25.396H179.42C176.324 25.396 174.776 24.304 174.776 22.12C174.776 21.424 174.98 20.776 175.388 20.176C175.796 19.576 176.444 19.12 177.332 18.808C176.348 18.328 175.616 17.668 175.136 16.828C174.68 15.988 174.452 14.98 174.452 13.804C174.452 11.62 175.1 10.036 176.396 9.052C177.716 8.068 179.684 7.576 182.3 7.576C182.852 7.576 183.428 7.624 184.028 7.72C184.628 7.792 185.096 7.864 185.432 7.936H191.696L191.588 10.492H188.708C189.164 10.876 189.5 11.356 189.716 11.932C189.932 12.508 190.04 13.132 190.04 13.804C190.04 15.628 189.488 17.068 188.384 18.124C187.28 19.156 185.612 19.672 183.38 19.672C182.996 19.672 182.636 19.66 182.3 19.636C181.988 19.588 181.64 19.54 181.256 19.492C180.536 19.564 179.888 19.756 179.312 20.068C178.736 20.38 178.448 20.8 178.448 21.328C178.448 21.688 178.592 21.952 178.88 22.12C179.168 22.264 179.648 22.336 180.32 22.336H185.108C186.812 22.336 188.12 22.708 189.032 23.452C189.968 24.172 190.436 25.228 190.436 26.62C190.436 28.3 189.704 29.5 188.24 30.22C186.8 30.964 184.724 31.336 182.012 31.336ZM182.3 17.188C183.86 17.188 184.94 16.924 185.54 16.396C186.164 15.868 186.476 14.968 186.476 13.696C186.476 12.424 186.164 11.5 185.54 10.924C184.94 10.348 183.86 10.06 182.3 10.06C180.836 10.06 179.768 10.336 179.096 10.888C178.424 11.44 178.088 12.376 178.088 13.696C178.088 14.92 178.4 15.808 179.024 16.36C179.672 16.912 180.764 17.188 182.3 17.188ZM195.56 4.372V1.132H199.844V4.372H195.56ZM195.884 25V10.924H193.292L193.652 7.936H199.808V25H195.884Z" fill="#F3F3F3"/>
</svg>
