<svg width="186" height="30" viewBox="0 0 186 30" fill="none" xmlns="http://www.w3.org/2000/svg">
<path d="M3.88 22L0.88 9.12H3.02L5.2 18.78L7.64 10.68V9.12H9.42L12.16 18.78L14.38 9.12H16.5L13.52 22H11.38L8.8 12.98L6.06 22H3.88ZM20.0989 22.2C19.4989 22.2 18.9389 22.0933 18.4189 21.88C17.9122 21.6667 17.5056 21.3467 17.1989 20.92C16.8922 20.48 16.7389 19.94 16.7389 19.3C16.7389 18.3933 17.0456 17.6667 17.6589 17.12C18.2856 16.56 19.2456 16.28 20.5389 16.28H23.5789V15.86C23.5789 15.4067 23.5056 15.0467 23.3589 14.78C23.2256 14.5133 22.9722 14.32 22.5989 14.2C22.2389 14.08 21.7056 14.02 20.9989 14.02C19.8789 14.02 18.8322 14.1867 17.8589 14.52V12.9C18.2856 12.7267 18.8056 12.5867 19.4189 12.48C20.0322 12.3733 20.6922 12.32 21.3989 12.32C22.7856 12.32 23.8389 12.6 24.5589 13.16C25.2922 13.72 25.6589 14.6333 25.6589 15.9V22H23.7989L23.6589 21.04C23.2722 21.4133 22.7922 21.7 22.2189 21.9C21.6589 22.1 20.9522 22.2 20.0989 22.2ZM20.6789 20.64C21.3322 20.64 21.8989 20.5333 22.3789 20.32C22.8722 20.0933 23.2722 19.7933 23.5789 19.42V17.76H20.5789C19.9389 17.76 19.4722 17.8867 19.1789 18.14C18.8989 18.38 18.7589 18.7533 18.7589 19.26C18.7589 19.7533 18.9256 20.1067 19.2589 20.32C19.5922 20.5333 20.0656 20.64 20.6789 20.64ZM31.6964 22.2C30.6831 22.2 29.9231 21.9333 29.4164 21.4C28.9231 20.8533 28.6764 20.1133 28.6764 19.18V14.22H27.2764V12.52H28.6764V10.34L30.8364 9.68V12.52H33.3564L33.2164 14.22H30.8364V19.06C30.8364 19.6067 30.9631 19.9933 31.2164 20.22C31.4697 20.4333 31.8831 20.54 32.4564 20.54C32.8164 20.54 33.1964 20.4733 33.5964 20.34V21.88C33.0764 22.0933 32.4431 22.2 31.6964 22.2ZM39.9239 22.2C38.2572 22.2 36.9972 21.78 36.1439 20.94C35.2906 20.0867 34.8639 18.86 34.8639 17.26C34.8639 15.5933 35.3306 14.3533 36.2639 13.54C37.2106 12.7267 38.4706 12.32 40.0439 12.32C40.6972 12.32 41.2439 12.3667 41.6839 12.46C42.1372 12.5533 42.5706 12.7 42.9839 12.9V14.52C42.2906 14.1733 41.4506 14 40.4639 14C39.3706 14 38.5306 14.2467 37.9439 14.74C37.3572 15.22 37.0639 16.06 37.0639 17.26C37.0639 18.3933 37.3239 19.2267 37.8439 19.76C38.3639 20.28 39.2239 20.54 40.4239 20.54C41.3706 20.54 42.2306 20.36 43.0039 20V21.66C42.5639 21.8333 42.0906 21.9667 41.5839 22.06C41.0906 22.1533 40.5372 22.2 39.9239 22.2ZM44.7366 22V8.52H46.9166V13.44C47.3299 13.1067 47.8232 12.84 48.3966 12.64C48.9699 12.4267 49.6166 12.32 50.3366 12.32C51.5366 12.32 52.4232 12.6067 52.9966 13.18C53.5699 13.7533 53.8566 14.6467 53.8566 15.86V22H51.6966V15.96C51.6966 15.2267 51.5366 14.7133 51.2166 14.42C50.9099 14.1267 50.3699 13.98 49.5966 13.98C49.1166 13.98 48.6299 14.0867 48.1366 14.3C47.6432 14.5 47.2366 14.7667 46.9166 15.1V22H44.7366Z" fill="#F3F3F3"/>
<path d="M92.88 22L97.8 9.12H100.24L105.12 22H102.88L101.6 18.68H96.42L95.14 22H92.88ZM96.76 17H101.24L99 11.1L96.76 17ZM110.285 22.2C109.432 22.2 108.679 22.0533 108.025 21.76C107.372 21.4667 106.865 20.98 106.505 20.3C106.145 19.62 105.965 18.7067 105.965 17.56C105.965 16.4267 106.159 15.4733 106.545 14.7C106.932 13.9133 107.465 13.32 108.145 12.92C108.839 12.52 109.619 12.32 110.485 12.32C111.059 12.32 111.565 12.3867 112.005 12.52C112.459 12.6533 112.892 12.86 113.305 13.14V8.52H115.485V22H113.625L113.485 21.06C113.059 21.4467 112.592 21.7333 112.085 21.92C111.579 22.1067 110.979 22.2 110.285 22.2ZM110.865 20.56C111.839 20.56 112.652 20.2267 113.305 19.56V14.82C112.679 14.26 111.892 13.98 110.945 13.98C110.025 13.98 109.332 14.2867 108.865 14.9C108.399 15.5133 108.165 16.4067 108.165 17.58C108.165 18.7133 108.379 19.4933 108.805 19.92C109.245 20.3467 109.932 20.56 110.865 20.56ZM121.731 22.2C120.877 22.2 120.124 22.0533 119.471 21.76C118.817 21.4667 118.311 20.98 117.951 20.3C117.591 19.62 117.411 18.7067 117.411 17.56C117.411 16.4267 117.604 15.4733 117.991 14.7C118.377 13.9133 118.911 13.32 119.591 12.92C120.284 12.52 121.064 12.32 121.931 12.32C122.504 12.32 123.011 12.3867 123.451 12.52C123.904 12.6533 124.337 12.86 124.751 13.14V8.52H126.931V22H125.071L124.931 21.06C124.504 21.4467 124.037 21.7333 123.531 21.92C123.024 22.1067 122.424 22.2 121.731 22.2ZM122.311 20.56C123.284 20.56 124.097 20.2267 124.751 19.56V14.82C124.124 14.26 123.337 13.98 122.391 13.98C121.471 13.98 120.777 14.2867 120.311 14.9C119.844 15.5133 119.611 16.4067 119.611 17.58C119.611 18.7133 119.824 19.4933 120.251 19.92C120.691 20.3467 121.377 20.56 122.311 20.56ZM134.061 22V9.12H136.301L140.381 17.46L144.441 9.12H146.681V22H144.521V12.66L141.041 19.78H139.721L136.221 12.66V22H134.061ZM153.738 22.2C152.031 22.2 150.778 21.7733 149.978 20.92C149.191 20.0667 148.798 18.8467 148.798 17.26C148.798 15.6733 149.198 14.4533 149.998 13.6C150.798 12.7467 152.044 12.32 153.738 12.32C155.444 12.32 156.698 12.7467 157.498 13.6C158.298 14.4533 158.698 15.6733 158.698 17.26C158.698 18.8467 158.298 20.0667 157.498 20.92C156.711 21.7733 155.458 22.2 153.738 22.2ZM153.738 20.36C154.738 20.36 155.444 20.12 155.858 19.64C156.284 19.1467 156.498 18.3533 156.498 17.26C156.498 16.1667 156.284 15.38 155.858 14.9C155.444 14.42 154.738 14.18 153.738 14.18C152.751 14.18 152.044 14.42 151.618 14.9C151.204 15.38 150.998 16.1667 150.998 17.26C150.998 18.3533 151.204 19.1467 151.618 19.64C152.044 20.12 152.751 20.36 153.738 20.36ZM163.065 22L159.325 12.52H161.585L164.245 19.88L166.905 12.52H169.145L165.425 22H163.065ZM171.384 10.54V8.74H173.764V10.54H171.384ZM171.564 22V14.18H170.124L170.324 12.52H173.744V22H171.564ZM181.087 22.2C179.434 22.2 178.154 21.7933 177.247 20.98C176.341 20.1667 175.887 18.92 175.887 17.24C175.887 15.72 176.274 14.52 177.047 13.64C177.821 12.76 178.994 12.32 180.567 12.32C182.007 12.32 183.087 12.7 183.807 13.46C184.541 14.2067 184.907 15.1733 184.907 16.36V18.12H177.967C178.074 19.04 178.407 19.6733 178.967 20.02C179.527 20.3667 180.381 20.54 181.527 20.54C182.007 20.54 182.501 20.4933 183.007 20.4C183.514 20.3067 183.954 20.1867 184.327 20.04V21.64C183.901 21.8267 183.407 21.9667 182.847 22.06C182.301 22.1533 181.714 22.2 181.087 22.2ZM177.967 16.7H182.987V16.04C182.987 15.3867 182.807 14.88 182.447 14.52C182.087 14.1467 181.481 13.96 180.627 13.96C179.614 13.96 178.914 14.18 178.527 14.62C178.154 15.06 177.967 15.7533 177.967 16.7Z" fill="#F3F3F3"/>
</svg>
